# xmcd
#
# Track frame offsets:
#	150
#	16529
#	38718
#	55113
#	69601
#	85022
#	107668
#	126494
#	147050
#	165486
#	182280
#	200398
#	216665
#	236014
#	252900
#	277512
#	300456
#	319763
#	338233
#
# Disc length: 4748 seconds
#
# Revision: 0
# Processed by: cddbd v1.4PL0 Copyright (c) Steve Scherf et al.
# Submitted via: MusicWizard 6.0.0
#
DISCID=fc128a13
DTITLE=Various Artist - Don't Stop The 80's [CD 2/2)
DYEAR=1900
DGENRE=
TTITLE0=a-ha - take on me
TTITLE1=eurythmics - sweet dreams
TTITLE2=alphaville - big in japan
TTITLE3=madonna - like a virgin
TTITLE4=kim wilde - kids in america
TTITLE5=kate bush - running up that hill
TTITLE6=pat Benatar - love is a battlefield
TTITLE7=eighth wonder - i'm not scared
TTITLE8=animotion - i engineer
TTITLE9=kajagoogoo with Limahl - too shy
TTITLE10=wang chung - dance hall days
TTITLE11=moti special - cold days hot nights
TTITLE12=bronski Beat - smalltown boy
TTITLE13=al Corley - square rooms
TTITLE14=precious little diamond - fox the fox
TTITLE15=midge Ure - if i was
TTITLE16=howard jones - new song
TTITLE17=BlacKFOOT - everything's coming up roses
TTITLE18=godley and creame - cry
EXTD=
EXTT0=
EXTT1=
EXTT2=
EXTT3=
EXTT4=
EXTT5=
EXTT6=
EXTT7=
EXTT8=
EXTT9=
EXTT10=
EXTT11=
EXTT12=
EXTT13=
EXTT14=
EXTT15=
EXTT16=
EXTT17=
EXTT18=
PLAYORDER=
